G04*
G04 #@! TF.GenerationSoftware,Altium Limited,Altium Designer,20.2.7 (254)*
G04*
G04 Layer_Physical_Order=2*
G04 Layer_Color=16711680*
%FSLAX44Y44*%
%MOMM*%
G71*
G04*
G04 #@! TF.SameCoordinates,727BD790-FD8A-488A-AA33-CFF93EEF8A04*
G04*
G04*
G04 #@! TF.FilePolarity,Positive*
G04*
G01*
G75*
%ADD10C,0.2000*%
%ADD12C,0.1500*%
%ADD19C,0.2500*%
%ADD20C,1.9000*%
%ADD21R,1.9000X1.9000*%
%ADD22C,0.6000*%
%ADD23R,1.8000X0.6000*%
%ADD24C,0.6000*%
D10*
X80250Y51000D02*
X109750D01*
X80250Y61000D02*
X109750D01*
X95000Y101000D02*
X104750D01*
X80250D02*
X95000D01*
X75250D02*
X80250D01*
X75250Y141000D02*
X104750D01*
X75250Y131000D02*
X104750D01*
X75250Y121000D02*
X104750D01*
Y81000D02*
X105000D01*
X84000D02*
X104750D01*
X84000Y71000D02*
X104750D01*
D12*
X66250Y149523D02*
Y357993D01*
Y149523D02*
X68250Y147523D01*
Y82750D02*
Y147523D01*
X63250Y148280D02*
Y356750D01*
Y148280D02*
X65250Y146280D01*
Y74750D02*
Y146280D01*
X60250Y147037D02*
Y333267D01*
Y147037D02*
X62250Y145037D01*
Y86340D02*
Y145037D01*
X57250Y145795D02*
Y310867D01*
Y145795D02*
X59250Y143795D01*
Y87583D02*
Y143795D01*
X54250Y144552D02*
Y237667D01*
Y144552D02*
X56250Y142552D01*
Y82250D02*
Y142552D01*
X51250Y143309D02*
Y224050D01*
Y143309D02*
X53250Y141310D01*
Y99725D02*
Y141310D01*
X37700Y237600D02*
X51250Y224050D01*
X51000Y97475D02*
X53250Y99725D01*
X51000Y77000D02*
Y77000D01*
X56250Y82250D01*
X65250Y74750D02*
X69000Y71000D01*
X75250D01*
X62250Y65750D02*
Y86340D01*
Y65750D02*
X67000Y61000D01*
X75250D01*
X66000Y51000D02*
X75250D01*
X59250Y57750D02*
Y87583D01*
Y57750D02*
X66000Y51000D01*
X109727Y110977D02*
X109750Y111000D01*
X95102Y110977D02*
X109727D01*
X84804Y90446D02*
X95196D01*
X95750Y91000D01*
X51000D02*
Y97475D01*
X59250Y87583D02*
X59250Y87583D01*
X62250Y86340D02*
X62250Y86340D01*
X75129Y81121D02*
X75250Y81000D01*
X68250Y82750D02*
X69879Y81121D01*
X75129D01*
X12300Y263000D02*
X25950Y249350D01*
X89273Y110977D02*
X95102D01*
X89250Y111000D02*
X89273Y110977D01*
X80250Y111000D02*
X89250D01*
X24241Y158242D02*
Y174859D01*
Y158242D02*
X32928Y149555D01*
X45200Y83686D02*
Y95918D01*
X32928Y149555D02*
X40762D01*
X49450Y100168D02*
Y140867D01*
X40762Y149555D02*
X49450Y140867D01*
X12300Y186800D02*
X24241Y174859D01*
X45200Y95918D02*
X49450Y100168D01*
X56250Y367993D02*
X66250Y357993D01*
X25950Y249350D02*
X42567D01*
X40858Y327259D02*
X57250Y310867D01*
X41133Y352384D02*
X60250Y333267D01*
X43000Y377000D02*
X63250Y356750D01*
X42567Y249350D02*
X54250Y237667D01*
X56250Y367993D02*
Y380750D01*
X25300Y377000D02*
X43000D01*
X37700Y390000D02*
X39271Y388429D01*
X48571D01*
X56250Y380750D01*
X24516Y352384D02*
X41133D01*
X12300Y364600D02*
X24516Y352384D01*
X12300Y339200D02*
X24241Y327259D01*
X12300Y390000D02*
X25300Y377000D01*
X24241Y327259D02*
X40858D01*
X95750Y91000D02*
X104750D01*
X84250D02*
X84804Y90446D01*
X75250Y91000D02*
X84250D01*
D19*
X80250Y151000D02*
X104750D01*
X80000Y151250D02*
X80250Y151000D01*
X80000Y151250D02*
Y159000D01*
D20*
X12300Y390000D02*
D03*
X37700D02*
D03*
Y364600D02*
D03*
X12300D02*
D03*
Y186800D02*
D03*
X37700D02*
D03*
X12300Y161400D02*
D03*
X37700D02*
D03*
X12300Y136000D02*
D03*
X37700D02*
D03*
X12300Y110600D02*
D03*
X37700Y212200D02*
D03*
X12300D02*
D03*
X37700Y237600D02*
D03*
X12300D02*
D03*
X37700Y263000D02*
D03*
X12300D02*
D03*
X37700Y288400D02*
D03*
X12300D02*
D03*
Y313800D02*
D03*
X37700D02*
D03*
Y339200D02*
D03*
X12300D02*
D03*
X37700Y415400D02*
D03*
X12300D02*
D03*
D21*
X37700Y110600D02*
D03*
D22*
X95000Y91000D02*
D03*
X80000Y159000D02*
D03*
X51000Y91000D02*
D03*
Y77000D02*
D03*
X95102Y110977D02*
D03*
X45000Y84000D02*
D03*
X95000Y101000D02*
D03*
D23*
X109750Y41000D02*
D03*
Y51000D02*
D03*
Y61000D02*
D03*
Y71000D02*
D03*
Y81000D02*
D03*
Y91000D02*
D03*
Y101000D02*
D03*
Y111000D02*
D03*
Y121000D02*
D03*
Y131000D02*
D03*
Y141000D02*
D03*
Y151000D02*
D03*
X80250Y41000D02*
D03*
Y51000D02*
D03*
Y61000D02*
D03*
Y71000D02*
D03*
Y81000D02*
D03*
Y91000D02*
D03*
Y101000D02*
D03*
Y111000D02*
D03*
Y121000D02*
D03*
Y131000D02*
D03*
Y141000D02*
D03*
Y151000D02*
D03*
D24*
X35000Y54000D02*
X48000Y41000D01*
X35000Y107900D02*
X37700Y110600D01*
X35000Y54000D02*
Y107900D01*
X48000Y41000D02*
X75250D01*
X37700Y110600D02*
Y136000D01*
X104750Y41000D02*
X109000D01*
X75250D02*
X104750D01*
M02*
