G04*
G04 #@! TF.GenerationSoftware,Altium Limited,Altium Designer,20.2.7 (254)*
G04*
G04 Layer_Color=65535*
%FSLAX44Y44*%
%MOMM*%
G71*
G04*
G04 #@! TF.SameCoordinates,727BD790-FD8A-488A-AA33-CFF93EEF8A04*
G04*
G04*
G04 #@! TF.FilePolarity,Positive*
G04*
G01*
G75*
%ADD10C,0.2000*%
%ADD11C,1.0000*%
%ADD12C,0.1500*%
%ADD13C,0.1000*%
%ADD14C,0.0500*%
D10*
X39000Y504000D02*
G03*
X39000Y504000I-14000J0D01*
G01*
Y24000D02*
G03*
X39000Y24000I-14000J0D01*
G01*
X31350Y428100D02*
X44050D01*
X31350Y402700D02*
X44050D01*
X31350Y377300D02*
X44050D01*
X31350D02*
X44050D01*
X31350D02*
X44050D01*
X31350Y351900D02*
X44050D01*
X31350D02*
X44050D01*
X31350D02*
X44050D01*
X31350Y326500D02*
X44050D01*
X31350D02*
X44050D01*
X31350D02*
X44050D01*
X31350Y301100D02*
X44050D01*
X31350D02*
X44050D01*
X31350Y275700D02*
X44050D01*
X31350Y250300D02*
X44050D01*
X31350Y224900D02*
X44050D01*
X31350Y199500D02*
X44050D01*
X31350Y174100D02*
X44050D01*
X31350Y148700D02*
X44050D01*
X25000Y409050D02*
Y421750D01*
X18650Y402700D02*
X25000Y396350D01*
X18650Y377300D02*
X25000Y370950D01*
X18650Y377300D02*
X25000Y383650D01*
X18650Y351900D02*
X25000Y358250D01*
X18650Y326500D02*
X25000Y332850D01*
Y307450D02*
Y320150D01*
X18650Y301100D02*
X25000Y294750D01*
X18650Y275700D02*
X25000Y282050D01*
X18650Y275700D02*
X25000Y269350D01*
X18650Y250300D02*
X25000Y256650D01*
X18650Y224900D02*
X25000Y231250D01*
Y205850D02*
Y218550D01*
X18650Y199500D02*
X25000Y193150D01*
X18650Y174100D02*
X25000Y180450D01*
X18650Y174100D02*
X25000Y167750D01*
X18650Y148700D02*
X25000Y155050D01*
X18650Y123300D02*
X25000Y129650D01*
X-400Y409050D02*
Y421750D01*
Y409050D02*
Y421750D01*
Y396350D02*
X5950Y402700D01*
X-400Y370950D02*
X5950Y377300D01*
X-400Y383650D02*
X5950Y377300D01*
X-400Y358250D02*
X5950Y351900D01*
X-400Y332850D02*
X5950Y326500D01*
X-400Y307450D02*
Y320150D01*
Y307450D02*
Y320150D01*
Y294750D02*
X5950Y301100D01*
X-400Y282050D02*
X5950Y275700D01*
X-400Y269350D02*
X5950Y275700D01*
X-400Y256650D02*
X5950Y250300D01*
X-400Y231250D02*
X5950Y224900D01*
X-400Y205850D02*
Y218550D01*
Y205850D02*
Y218550D01*
Y193150D02*
X5950Y199500D01*
X-400Y180450D02*
X5950Y174100D01*
X-400Y167750D02*
X5950Y174100D01*
X-400Y155050D02*
X5950Y148700D01*
X-400Y129650D02*
X5950Y123300D01*
X-400Y104250D02*
Y116950D01*
Y104250D02*
Y116950D01*
X18650Y402700D02*
X25000Y409050D01*
X18650Y428100D02*
X25000Y421750D01*
Y383650D02*
Y396350D01*
X18650Y351900D02*
X25000Y345550D01*
Y332850D02*
Y345550D01*
X18650Y326500D02*
X25000Y320150D01*
X18650Y301100D02*
X25000Y307450D01*
Y358250D02*
Y370950D01*
X18650Y250300D02*
X25000Y243950D01*
X18650Y224900D02*
X25000Y218550D01*
Y231250D02*
Y243950D01*
Y256650D02*
Y269350D01*
X18650Y199500D02*
X25000Y205850D01*
X18650Y148700D02*
X25000Y142350D01*
Y155050D02*
Y167750D01*
Y180450D02*
Y193150D01*
X18650Y97900D02*
X25000Y104250D01*
X18650Y123300D02*
X25000Y116950D01*
Y97900D02*
Y116950D01*
X-400Y421750D02*
X5950Y428100D01*
X-400Y409050D02*
X5950Y402700D01*
X-400Y383650D02*
Y396350D01*
Y383650D02*
Y396350D01*
Y345550D02*
X5950Y351900D01*
X-400Y332850D02*
Y345550D01*
Y332850D02*
Y345550D01*
Y307450D02*
X5950Y301100D01*
X-400Y320150D02*
X5950Y326500D01*
X-400Y358250D02*
Y370950D01*
Y358250D02*
Y370950D01*
Y256650D02*
Y269350D01*
Y243950D02*
X5950Y250300D01*
X-400Y231250D02*
Y243950D01*
Y218550D02*
X5950Y224900D01*
X-400Y231250D02*
Y243950D01*
Y256650D02*
Y269350D01*
Y205850D02*
X5950Y199500D01*
X-400Y180450D02*
Y193150D01*
Y155050D02*
Y167750D01*
Y142350D02*
X5950Y148700D01*
X-400Y155050D02*
Y167750D01*
Y180450D02*
Y193150D01*
Y104250D02*
X5950Y97900D01*
X-400Y116950D02*
X5950Y123300D01*
X25000Y282050D02*
Y294750D01*
Y129650D02*
Y142350D01*
X-400Y282050D02*
Y294750D01*
Y282050D02*
Y294750D01*
Y129650D02*
Y142350D01*
Y129650D02*
Y142350D01*
X5950Y428100D02*
X18650D01*
X50400Y409050D02*
Y421750D01*
X44050Y402700D02*
X50400Y396350D01*
X25000D02*
X31350Y402700D01*
X5950D02*
X18650D01*
X5950Y377300D02*
X18650D01*
X25000Y370950D02*
X31350Y377300D01*
X44050D02*
X50400Y370950D01*
X44050Y377300D02*
X50400Y383650D01*
X25000D02*
X31350Y377300D01*
X5950D02*
X18650D01*
X5950D02*
X18650D01*
X5950Y351900D02*
X18650D01*
X5950D02*
X18650D01*
X5950D02*
X18650D01*
X25000Y358250D02*
X31350Y351900D01*
X44050D02*
X50400Y358250D01*
X5950Y326500D02*
X18650D01*
X5950D02*
X18650D01*
X25000Y332850D02*
X31350Y326500D01*
X44050D02*
X50400Y332850D01*
X5950Y326500D02*
X18650D01*
X50400Y307450D02*
Y320150D01*
X5950Y301100D02*
X18650D01*
X5950D02*
X18650D01*
X25000Y294750D02*
X31350Y301100D01*
X44050D02*
X50400Y294750D01*
X5950Y275700D02*
X18650D01*
X44050D02*
X50400Y269350D01*
X25000D02*
X31350Y275700D01*
X25000Y282050D02*
X31350Y275700D01*
X44050D02*
X50400Y282050D01*
X5950Y250300D02*
X18650D01*
X44050D02*
X50400Y256650D01*
X25000D02*
X31350Y250300D01*
X5950Y224900D02*
X18650D01*
X25000Y231250D02*
X31350Y224900D01*
X44050D02*
X50400Y231250D01*
Y205850D02*
Y218550D01*
X5950Y199500D02*
X18650D01*
X25000Y193150D02*
X31350Y199500D01*
X44050D02*
X50400Y193150D01*
X5950Y174100D02*
X18650D01*
X44050D02*
X50400Y167750D01*
X25000D02*
X31350Y174100D01*
X25000Y180450D02*
X31350Y174100D01*
X44050D02*
X50400Y180450D01*
X5950Y148700D02*
X18650D01*
X44050D02*
X50400Y155050D01*
X25000D02*
X31350Y148700D01*
Y123300D02*
X50400D01*
X25000Y129650D02*
X31350Y123300D01*
X44050D02*
X50400Y129650D01*
X5950Y123300D02*
X18650D01*
X25000Y97900D02*
X50400D01*
X5950D02*
X18650D01*
X25000Y409050D02*
X31350Y402700D01*
X25000Y421750D02*
X31350Y428100D01*
X44050D02*
X50400Y421750D01*
X44050Y402700D02*
X50400Y409050D01*
Y383650D02*
Y396350D01*
Y332850D02*
Y345550D01*
X25000D02*
X31350Y351900D01*
X44050D02*
X50400Y345550D01*
X44050Y301100D02*
X50400Y307450D01*
X44050Y326500D02*
X50400Y320150D01*
X25000D02*
X31350Y326500D01*
X25000Y307450D02*
X31350Y301100D01*
X50400Y358250D02*
Y370950D01*
Y256650D02*
Y269350D01*
Y231250D02*
Y243950D01*
X44050Y224900D02*
X50400Y218550D01*
X25000D02*
X31350Y224900D01*
X25000Y243950D02*
X31350Y250300D01*
X44050D02*
X50400Y243950D01*
Y180450D02*
Y193150D01*
Y155050D02*
Y167750D01*
X25000Y142350D02*
X31350Y148700D01*
X44050D02*
X50400Y142350D01*
X44050Y199500D02*
X50400Y205850D01*
X25000D02*
X31350Y199500D01*
X50400Y97900D02*
Y123300D01*
Y282050D02*
Y294750D01*
Y129650D02*
Y142350D01*
D11*
X13291Y85500D02*
G03*
X13291Y85500I-791J0D01*
G01*
D12*
X112702Y177750D02*
G03*
X112702Y177750I-20351J0D01*
G01*
X108500Y178000D02*
G03*
X108500Y178000I-7500J0D01*
G01*
X90250Y171500D02*
Y185250D01*
X77500Y171500D02*
Y185250D01*
X84066Y179260D02*
X88184Y177201D01*
X79934Y177240D02*
X84066Y179260D01*
X66500Y127599D02*
Y135597D01*
X70499D01*
X71832Y134264D01*
Y131598D01*
X70499Y130265D01*
X66500D01*
X69166D02*
X71832Y127599D01*
X74497Y135597D02*
Y127599D01*
X78496D01*
X79829Y128932D01*
Y134264D01*
X78496Y135597D01*
X74497D01*
X82495Y127599D02*
Y132931D01*
X85161Y135597D01*
X87826Y132931D01*
Y127599D01*
Y131598D01*
X82495D01*
X90492Y126266D02*
X95824D01*
X99823Y127599D02*
X102488D01*
X103821Y128932D01*
Y131598D01*
X102488Y132931D01*
X99823D01*
X98490Y131598D01*
Y128932D01*
X99823Y127599D01*
X106487Y132931D02*
Y127599D01*
Y130265D01*
X107820Y131598D01*
X109153Y132931D01*
X110486D01*
X114485D02*
X119816D01*
X114485Y127599D01*
X119816D01*
X66500Y113069D02*
Y118401D01*
X69166Y121067D01*
X71832Y118401D01*
Y113069D01*
Y117068D01*
X66500D01*
X79829Y121067D02*
Y113069D01*
X75830D01*
X74497Y114402D01*
Y117068D01*
X75830Y118401D01*
X79829D01*
X83828D02*
X86494D01*
X87826Y117068D01*
Y113069D01*
X83828D01*
X82495Y114402D01*
X83828Y115735D01*
X87826D01*
X90492Y110403D02*
Y118401D01*
X94491D01*
X95824Y117068D01*
Y114402D01*
X94491Y113069D01*
X90492D01*
X99823Y119734D02*
Y118401D01*
X98490D01*
X101155D01*
X99823D01*
Y114402D01*
X101155Y113069D01*
X109153D02*
X106487D01*
X105154Y114402D01*
Y117068D01*
X106487Y118401D01*
X109153D01*
X110486Y117068D01*
Y115735D01*
X105154D01*
X113152Y118401D02*
Y113069D01*
Y115735D01*
X114485Y117068D01*
X115817Y118401D01*
X117150D01*
X2335Y440998D02*
X9000Y431002D01*
Y440998D02*
X2335Y431002D01*
X12332D02*
X15664D01*
X13998D01*
Y440998D01*
X12332Y439332D01*
X67000Y146332D02*
X69666Y141000D01*
X72332Y146332D01*
X74997Y141000D02*
X77663D01*
X76330D01*
Y148997D01*
X74997Y147664D01*
X81662Y141000D02*
Y142333D01*
X82995D01*
Y141000D01*
X81662D01*
X88327Y147664D02*
X89659Y148997D01*
X92325D01*
X93658Y147664D01*
Y142333D01*
X92325Y141000D01*
X89659D01*
X88327Y142333D01*
Y147664D01*
D13*
X31350Y428100D02*
X44050D01*
X31350Y402700D02*
X44050D01*
X31350Y377300D02*
X44050D01*
X31350Y351900D02*
X44050D01*
X31350Y326500D02*
X44050D01*
X31350Y301100D02*
X44050D01*
X31350Y275700D02*
X44050D01*
X31350Y250300D02*
X44050D01*
X31350Y224900D02*
X44050D01*
X31350Y199500D02*
X44050D01*
X31350Y174100D02*
X44050D01*
X31350Y148700D02*
X44050D01*
X25000Y409050D02*
Y421750D01*
X18650Y402700D02*
X25000Y396350D01*
X18650Y377300D02*
X25000Y383650D01*
X18650Y377300D02*
X25000Y370950D01*
X18650Y351900D02*
X25000Y358250D01*
X18650Y326500D02*
X25000Y332850D01*
Y307450D02*
Y320150D01*
X18650Y301100D02*
X25000Y294750D01*
X18650Y275700D02*
X25000Y282050D01*
X18650Y275700D02*
X25000Y269350D01*
X18650Y250300D02*
X25000Y256650D01*
X18650Y224900D02*
X25000Y231250D01*
Y205850D02*
Y218550D01*
X18650Y199500D02*
X25000Y193150D01*
X18650Y174100D02*
X25000Y180450D01*
X18650Y174100D02*
X25000Y167750D01*
X18650Y148700D02*
X25000Y155050D01*
X18650Y123300D02*
X25000Y129650D01*
X-400Y409050D02*
Y421750D01*
Y396350D02*
X5950Y402700D01*
X-400Y383650D02*
X5950Y377300D01*
X-400Y370950D02*
X5950Y377300D01*
X-400Y358250D02*
X5950Y351900D01*
X-400Y332850D02*
X5950Y326500D01*
X-400Y307450D02*
Y320150D01*
Y294750D02*
X5950Y301100D01*
X-400Y282050D02*
X5950Y275700D01*
X-400Y269350D02*
X5950Y275700D01*
X-400Y256650D02*
X5950Y250300D01*
X-400Y231250D02*
X5950Y224900D01*
X-400Y205850D02*
Y218550D01*
Y193150D02*
X5950Y199500D01*
X-400Y180450D02*
X5950Y174100D01*
X-400Y167750D02*
X5950Y174100D01*
X-400Y155050D02*
X5950Y148700D01*
X-400Y129650D02*
X5950Y123300D01*
X-400Y104250D02*
Y116950D01*
X18650Y428100D02*
X25000Y421750D01*
X18650Y402700D02*
X25000Y409050D01*
Y383650D02*
Y396350D01*
Y332850D02*
Y345550D01*
Y358250D02*
Y370950D01*
X18650Y301100D02*
X25000Y307450D01*
X18650Y326500D02*
X25000Y320150D01*
X18650Y351900D02*
X25000Y345550D01*
Y256650D02*
Y269350D01*
Y231250D02*
Y243950D01*
X18650Y224900D02*
X25000Y218550D01*
X18650Y250300D02*
X25000Y243950D01*
X18650Y199500D02*
X25000Y205850D01*
Y180450D02*
Y193150D01*
Y155050D02*
Y167750D01*
X18650Y148700D02*
X25000Y142350D01*
X18650Y97900D02*
X25000Y104250D01*
X18650Y123300D02*
X25000Y116950D01*
Y97900D02*
Y116950D01*
X-400Y421750D02*
X5950Y428100D01*
X-400Y409050D02*
X5950Y402700D01*
X-400Y383650D02*
Y396350D01*
Y332850D02*
Y345550D01*
Y320150D02*
X5950Y326500D01*
X-400Y307450D02*
X5950Y301100D01*
X-400Y358250D02*
Y370950D01*
Y345550D02*
X5950Y351900D01*
X-400Y218550D02*
X5950Y224900D01*
X-400Y256650D02*
Y269350D01*
Y231250D02*
Y243950D01*
X5950Y250300D01*
X-400Y205850D02*
X5950Y199500D01*
X-400Y180450D02*
Y193150D01*
Y155050D02*
Y167750D01*
Y142350D02*
X5950Y148700D01*
X-400Y104250D02*
X5950Y97900D01*
X-400Y116950D02*
X5950Y123300D01*
X25000Y282050D02*
Y294750D01*
Y129650D02*
Y142350D01*
X-400Y282050D02*
Y294750D01*
Y129650D02*
Y142350D01*
X5950Y428100D02*
X18650D01*
X50400Y409050D02*
Y421750D01*
X25000Y396350D02*
X31350Y402700D01*
X44050D02*
X50400Y396350D01*
X5950Y402700D02*
X18650D01*
X25000Y383650D02*
X31350Y377300D01*
X25000Y370950D02*
X31350Y377300D01*
X44050D02*
X50400Y383650D01*
X44050Y377300D02*
X50400Y370950D01*
X5950Y377300D02*
X18650D01*
X25000Y358250D02*
X31350Y351900D01*
X44050D02*
X50400Y358250D01*
X5950Y351900D02*
X18650D01*
X25000Y332850D02*
X31350Y326500D01*
X44050D02*
X50400Y332850D01*
X5950Y326500D02*
X18650D01*
X50400Y307450D02*
Y320150D01*
X25000Y294750D02*
X31350Y301100D01*
X44050D02*
X50400Y294750D01*
X5950Y301100D02*
X18650D01*
X25000Y282050D02*
X31350Y275700D01*
X25000Y269350D02*
X31350Y275700D01*
X44050D02*
X50400Y282050D01*
X44050Y275700D02*
X50400Y269350D01*
X5950Y275700D02*
X18650D01*
X25000Y256650D02*
X31350Y250300D01*
X44050D02*
X50400Y256650D01*
X5950Y250300D02*
X18650D01*
X25000Y231250D02*
X31350Y224900D01*
X44050D02*
X50400Y231250D01*
X5950Y224900D02*
X18650D01*
X50400Y205850D02*
Y218550D01*
X25000Y193150D02*
X31350Y199500D01*
X44050D02*
X50400Y193150D01*
X5950Y199500D02*
X18650D01*
X25000Y180450D02*
X31350Y174100D01*
X25000Y167750D02*
X31350Y174100D01*
X44050D02*
X50400Y180450D01*
X44050Y174100D02*
X50400Y167750D01*
X5950Y174100D02*
X18650D01*
X25000Y155050D02*
X31350Y148700D01*
X44050D02*
X50400Y155050D01*
X5950Y148700D02*
X18650D01*
X31350Y123300D02*
X50400D01*
X25000Y129650D02*
X31350Y123300D01*
X44050D02*
X50400Y129650D01*
X25000Y97900D02*
X50400D01*
X5950D02*
X18650D01*
X25000Y421750D02*
X31350Y428100D01*
X44050D02*
X50400Y421750D01*
X25000Y409050D02*
X31350Y402700D01*
X44050D02*
X50400Y409050D01*
Y383650D02*
Y396350D01*
Y332850D02*
Y345550D01*
X25000Y307450D02*
X31350Y301100D01*
X25000Y320150D02*
X31350Y326500D01*
X44050D02*
X50400Y320150D01*
X44050Y301100D02*
X50400Y307450D01*
Y358250D02*
Y370950D01*
X25000Y345550D02*
X31350Y351900D01*
X44050D02*
X50400Y345550D01*
X25000Y218550D02*
X31350Y224900D01*
X44050D02*
X50400Y218550D01*
Y256650D02*
Y269350D01*
Y231250D02*
Y243950D01*
X25000D02*
X31350Y250300D01*
X44050D02*
X50400Y243950D01*
X25000Y205850D02*
X31350Y199500D01*
X44050D02*
X50400Y205850D01*
Y180450D02*
Y193150D01*
Y155050D02*
Y167750D01*
X25000Y142350D02*
X31350Y148700D01*
X44050D02*
X50400Y142350D01*
Y97900D02*
Y123300D01*
Y282050D02*
Y294750D01*
Y129650D02*
Y142350D01*
X25000Y258000D02*
Y268000D01*
X20000Y263000D02*
X30000D01*
D14*
X50400Y97900D02*
Y428100D01*
X-400Y97900D02*
Y428100D01*
X50400D01*
X-400Y97900D02*
X50400D01*
M02*
