G04*
G04 #@! TF.GenerationSoftware,Altium Limited,Altium Designer,20.2.7 (254)*
G04*
G04 Layer_Physical_Order=1*
G04 Layer_Color=255*
%FSLAX44Y44*%
%MOMM*%
G71*
G04*
G04 #@! TF.SameCoordinates,A9EDBE35-11DE-427E-9D3E-92A449E16AAC*
G04*
G04*
G04 #@! TF.FilePolarity,Positive*
G04*
G01*
G75*
%ADD10C,0.1500*%
%ADD18C,0.2500*%
%ADD19C,1.9000*%
%ADD20R,1.9000X1.9000*%
%ADD21C,0.6000*%
G36*
X25522Y208937D02*
X26781Y205896D01*
X28785Y203285D01*
X31396Y201281D01*
X33737Y200312D01*
Y198688D01*
X31396Y197719D01*
X28785Y195715D01*
X26781Y193104D01*
X25812Y190763D01*
X24188D01*
X23219Y193104D01*
X21215Y195715D01*
X18604Y197719D01*
X15563Y198978D01*
X15443Y200470D01*
X18372Y201683D01*
X20887Y203613D01*
X22817Y206128D01*
X24030Y209057D01*
X25522Y208937D01*
D02*
G37*
G36*
X8634Y526703D02*
X10000Y526431D01*
X50000D01*
X51366Y526703D01*
X51484Y526782D01*
X52025Y526675D01*
X53288Y526151D01*
X54425Y525392D01*
X55392Y524425D01*
X56151Y523288D01*
X56675Y522025D01*
X56782Y521484D01*
X56703Y521366D01*
X56431Y520000D01*
Y380000D01*
X56703Y378634D01*
X57135Y377988D01*
X57431Y376500D01*
X57546Y376222D01*
X57605Y375927D01*
X58355Y374116D01*
X58522Y373865D01*
X58638Y373587D01*
X59727Y371957D01*
X59940Y371744D01*
X60107Y371493D01*
X61493Y370107D01*
X61744Y369940D01*
X61957Y369727D01*
X63587Y368638D01*
X63865Y368522D01*
X64116Y368355D01*
X65927Y367605D01*
X66222Y367546D01*
X66431Y367459D01*
Y215000D01*
X66703Y213634D01*
X67135Y212988D01*
X67431Y211500D01*
X67546Y211222D01*
X67605Y210927D01*
X68355Y209116D01*
X68522Y208865D01*
X68638Y208587D01*
X69727Y206957D01*
X69940Y206744D01*
X70107Y206493D01*
X71493Y205107D01*
X71744Y204940D01*
X71957Y204727D01*
X73587Y203638D01*
X73865Y203522D01*
X74116Y203355D01*
X75927Y202605D01*
X76222Y202546D01*
X76500Y202431D01*
X77988Y202135D01*
X78634Y201703D01*
X80000Y201431D01*
X115000D01*
X115000Y5069D01*
X113500Y3569D01*
X10000D01*
X8634Y3297D01*
X8516Y3218D01*
X7975Y3325D01*
X6712Y3849D01*
X5575Y4608D01*
X4608Y5575D01*
X3849Y6712D01*
X3325Y7975D01*
X3218Y8516D01*
X3297Y8634D01*
X3569Y10000D01*
Y99848D01*
X4914Y100512D01*
X5996Y99681D01*
X9037Y98422D01*
X12300Y97992D01*
X15563Y98422D01*
X18604Y99681D01*
X21215Y101685D01*
X23219Y104296D01*
X23700Y105458D01*
X25200Y105160D01*
Y98100D01*
X47975D01*
X48600Y96711D01*
X48581Y96600D01*
X46674Y95326D01*
X45348Y93341D01*
X44882Y91000D01*
X45048Y90166D01*
X45000Y90118D01*
X42659Y89652D01*
X40674Y88326D01*
X39348Y86341D01*
X38883Y84000D01*
X39348Y81659D01*
X40674Y79674D01*
X42659Y78348D01*
X43585Y78164D01*
X44882Y77000D01*
X45348Y74659D01*
X46674Y72674D01*
X48659Y71348D01*
X51000Y70883D01*
X53341Y71348D01*
X55326Y72674D01*
X55661Y73177D01*
X81000D01*
X82463Y73468D01*
X83704Y74296D01*
X94408Y85000D01*
X95000Y84882D01*
X97341Y85348D01*
X99326Y86674D01*
X100652Y88659D01*
X101117Y91000D01*
X100652Y93341D01*
X99536Y95011D01*
X99411Y96000D01*
X99536Y96989D01*
X100652Y98659D01*
X101117Y101000D01*
X100652Y103341D01*
X99326Y105326D01*
X99617Y106935D01*
X100753Y108636D01*
X101219Y110977D01*
X100753Y113318D01*
X99427Y115302D01*
X97443Y116629D01*
X95102Y117094D01*
X92760Y116629D01*
X90776Y115302D01*
X89450Y113318D01*
X88984Y110977D01*
X89081Y110488D01*
X73416Y94823D01*
X55661D01*
X55326Y95326D01*
X53341Y96652D01*
X51271Y97064D01*
X50721Y97596D01*
X50200Y98488D01*
Y123100D01*
X43140D01*
X42842Y124600D01*
X44004Y125081D01*
X46615Y127085D01*
X48619Y129696D01*
X49878Y132737D01*
X50308Y136000D01*
X49878Y139263D01*
X48619Y142304D01*
X46615Y144915D01*
X44004Y146919D01*
X40963Y148178D01*
X40843Y149670D01*
X43772Y150883D01*
X46287Y152813D01*
X48217Y155328D01*
X49430Y158257D01*
X49677Y160130D01*
X37700D01*
Y162670D01*
X49677D01*
X49430Y164543D01*
X48217Y167472D01*
X46287Y169987D01*
X43772Y171917D01*
X40843Y173130D01*
X40963Y174622D01*
X44004Y175881D01*
X46615Y177885D01*
X48619Y180496D01*
X49878Y183537D01*
X50308Y186800D01*
X49878Y190063D01*
X48619Y193104D01*
X46615Y195715D01*
X44004Y197719D01*
X41663Y198688D01*
Y200312D01*
X44004Y201281D01*
X46615Y203285D01*
X48619Y205896D01*
X49878Y208937D01*
X50308Y212200D01*
X49878Y215463D01*
X48619Y218504D01*
X46615Y221115D01*
X44004Y223119D01*
X41663Y224088D01*
Y225712D01*
X44004Y226681D01*
X46615Y228685D01*
X48619Y231296D01*
X49878Y234337D01*
X50308Y237600D01*
X49878Y240863D01*
X48619Y243904D01*
X46615Y246515D01*
X44004Y248519D01*
X40963Y249778D01*
X40843Y251270D01*
X43772Y252483D01*
X46287Y254413D01*
X48217Y256928D01*
X49430Y259857D01*
X49677Y261730D01*
X37700D01*
Y264270D01*
X49677D01*
X49430Y266143D01*
X48217Y269072D01*
X46287Y271587D01*
X43772Y273517D01*
X40843Y274730D01*
X40963Y276222D01*
X44004Y277481D01*
X46615Y279485D01*
X48619Y282096D01*
X49878Y285137D01*
X50308Y288400D01*
X49878Y291663D01*
X48619Y294704D01*
X46615Y297315D01*
X44004Y299319D01*
X41663Y300288D01*
Y301912D01*
X44004Y302881D01*
X46615Y304885D01*
X48619Y307496D01*
X49878Y310537D01*
X50308Y313800D01*
X49878Y317063D01*
X48619Y320104D01*
X46615Y322715D01*
X44004Y324719D01*
X40963Y325978D01*
X40843Y327470D01*
X43772Y328683D01*
X46287Y330613D01*
X48217Y333128D01*
X49430Y336057D01*
X49677Y337930D01*
X37700D01*
Y340470D01*
X49677D01*
X49430Y342343D01*
X48217Y345272D01*
X46287Y347787D01*
X43772Y349717D01*
X40843Y350930D01*
X40963Y352422D01*
X44004Y353681D01*
X46615Y355685D01*
X48619Y358296D01*
X49878Y361337D01*
X50308Y364600D01*
X49878Y367863D01*
X48619Y370904D01*
X46615Y373515D01*
X44004Y375519D01*
X41663Y376488D01*
Y378112D01*
X44004Y379081D01*
X46615Y381085D01*
X48619Y383696D01*
X49878Y386737D01*
X50308Y390000D01*
X49878Y393263D01*
X48619Y396304D01*
X46615Y398915D01*
X44004Y400919D01*
X41663Y401888D01*
Y403512D01*
X44004Y404481D01*
X46615Y406485D01*
X48619Y409096D01*
X49878Y412137D01*
X50308Y415400D01*
X49878Y418663D01*
X48619Y421704D01*
X46615Y424315D01*
X44004Y426319D01*
X40963Y427578D01*
X37700Y428008D01*
X34437Y427578D01*
X31396Y426319D01*
X28785Y424315D01*
X26781Y421704D01*
X25522Y418663D01*
X24030Y418543D01*
X22817Y421472D01*
X20887Y423987D01*
X18372Y425917D01*
X15443Y427130D01*
X13570Y427377D01*
Y415400D01*
X11030D01*
Y427377D01*
X9157Y427130D01*
X6228Y425917D01*
X5069Y425027D01*
X3569Y425767D01*
Y520000D01*
X3297Y521366D01*
X3218Y521484D01*
X3325Y522025D01*
X3849Y523288D01*
X4608Y524425D01*
X5575Y525392D01*
X6712Y526151D01*
X7975Y526675D01*
X8516Y526782D01*
X8634Y526703D01*
D02*
G37*
%LPC*%
G36*
X25000Y521082D02*
X21667Y520754D01*
X18463Y519782D01*
X15510Y518203D01*
X12921Y516079D01*
X10797Y513490D01*
X9218Y510537D01*
X8246Y507333D01*
X7918Y504000D01*
X8246Y500667D01*
X9218Y497463D01*
X10797Y494510D01*
X12921Y491921D01*
X15510Y489797D01*
X18463Y488218D01*
X21667Y487246D01*
X25000Y486918D01*
X28333Y487246D01*
X31537Y488218D01*
X34490Y489797D01*
X37079Y491921D01*
X39203Y494510D01*
X40782Y497463D01*
X41754Y500667D01*
X42082Y504000D01*
X41754Y507333D01*
X40782Y510537D01*
X39203Y513490D01*
X37079Y516079D01*
X34490Y518203D01*
X31537Y519782D01*
X28333Y520754D01*
X25000Y521082D01*
D02*
G37*
G36*
Y41082D02*
X21667Y40754D01*
X18463Y39782D01*
X15510Y38203D01*
X12921Y36079D01*
X10797Y33490D01*
X9218Y30537D01*
X8246Y27333D01*
X7918Y24000D01*
X8246Y20667D01*
X9218Y17463D01*
X10797Y14510D01*
X12921Y11921D01*
X15510Y9797D01*
X18463Y8218D01*
X21667Y7246D01*
X25000Y6918D01*
X28333Y7246D01*
X31537Y8218D01*
X34490Y9797D01*
X37079Y11921D01*
X39203Y14510D01*
X40782Y17463D01*
X41754Y20667D01*
X42082Y24000D01*
X41754Y27333D01*
X40782Y30537D01*
X39203Y33490D01*
X37079Y36079D01*
X34490Y38203D01*
X31537Y39782D01*
X28333Y40754D01*
X25000Y41082D01*
D02*
G37*
%LPD*%
D10*
X81000Y77000D02*
X95000Y91000D01*
X51000Y77000D02*
X81000D01*
X45200Y83686D02*
X77685D01*
X51000Y91000D02*
X75000D01*
X94977Y110977D01*
X95102D01*
X77685Y83686D02*
X95000Y101000D01*
D18*
X26000Y200000D02*
X32576D01*
X32626Y199950D01*
X42774D01*
X42824Y200000D01*
X48000D01*
X12300Y212200D02*
X13800D01*
X26000Y200000D01*
D19*
X12300Y390000D02*
D03*
X37700D02*
D03*
Y364600D02*
D03*
X12300D02*
D03*
Y186800D02*
D03*
X37700D02*
D03*
X12300Y161400D02*
D03*
X37700D02*
D03*
X12300Y136000D02*
D03*
X37700D02*
D03*
X12300Y110600D02*
D03*
X37700Y212200D02*
D03*
X12300D02*
D03*
X37700Y237600D02*
D03*
X12300D02*
D03*
X37700Y263000D02*
D03*
X12300D02*
D03*
X37700Y288400D02*
D03*
X12300D02*
D03*
Y313800D02*
D03*
X37700D02*
D03*
Y339200D02*
D03*
X12300D02*
D03*
X37700Y415400D02*
D03*
X12300D02*
D03*
D20*
X37700Y110600D02*
D03*
D21*
X109500Y159000D02*
D03*
X95102Y110977D02*
D03*
X95000Y91000D02*
D03*
Y101000D02*
D03*
X80000Y159000D02*
D03*
X51000Y91000D02*
D03*
Y77000D02*
D03*
X45000Y84000D02*
D03*
M02*
