G04*
G04 #@! TF.GenerationSoftware,Altium Limited,Altium Designer,20.2.7 (254)*
G04*
G04 Layer_Color=16711935*
%FSLAX44Y44*%
%MOMM*%
G71*
G04*
G04 #@! TF.SameCoordinates,A9EDBE35-11DE-427E-9D3E-92A449E16AAC*
G04*
G04*
G04 #@! TF.FilePolarity,Negative*
G04*
G01*
G75*
%ADD15C,2.1040*%
%ADD16R,2.1040X2.1040*%
%ADD17C,0.2040*%
%ADD24R,2.0040X0.8040*%
D15*
X12300Y390000D02*
D03*
X37700D02*
D03*
Y364600D02*
D03*
X12300D02*
D03*
Y186800D02*
D03*
X37700D02*
D03*
X12300Y161400D02*
D03*
X37700D02*
D03*
X12300Y136000D02*
D03*
X37700D02*
D03*
X12300Y110600D02*
D03*
X37700Y212200D02*
D03*
X12300D02*
D03*
X37700Y237600D02*
D03*
X12300D02*
D03*
X37700Y263000D02*
D03*
X12300D02*
D03*
X37700Y288400D02*
D03*
X12300D02*
D03*
Y313800D02*
D03*
X37700D02*
D03*
Y339200D02*
D03*
X12300D02*
D03*
X37700Y415400D02*
D03*
X12300D02*
D03*
D16*
X37700Y110600D02*
D03*
D17*
X25000Y504000D02*
D03*
Y24000D02*
D03*
D24*
X109750Y41000D02*
D03*
Y51000D02*
D03*
Y61000D02*
D03*
Y71000D02*
D03*
Y81000D02*
D03*
Y91000D02*
D03*
Y101000D02*
D03*
Y111000D02*
D03*
Y121000D02*
D03*
Y131000D02*
D03*
Y141000D02*
D03*
Y151000D02*
D03*
X80250Y41000D02*
D03*
Y51000D02*
D03*
Y61000D02*
D03*
Y71000D02*
D03*
Y81000D02*
D03*
Y91000D02*
D03*
Y101000D02*
D03*
Y111000D02*
D03*
Y121000D02*
D03*
Y131000D02*
D03*
Y141000D02*
D03*
Y151000D02*
D03*
M02*
