G04*
G04 #@! TF.GenerationSoftware,Altium Limited,Altium Designer,20.2.7 (254)*
G04*
G04 Layer_Color=65535*
%FSLAX44Y44*%
%MOMM*%
G71*
G04*
G04 #@! TF.SameCoordinates,A9EDBE35-11DE-427E-9D3E-92A449E16AAC*
G04*
G04*
G04 #@! TF.FilePolarity,Positive*
G04*
G01*
G75*
%ADD10C,0.1500*%
%ADD11C,0.2000*%
%ADD12C,1.0000*%
%ADD13C,0.1000*%
%ADD14C,0.0500*%
D10*
X100500Y77000D02*
G03*
X100500Y77000I-7500J0D01*
G01*
X104702Y76750D02*
G03*
X104702Y76750I-20351J0D01*
G01*
X71934Y76240D02*
X76066Y78260D01*
X80184Y76201D01*
X69500Y70500D02*
Y84250D01*
X82250Y70500D02*
Y84250D01*
X58500Y26599D02*
Y34597D01*
X62499D01*
X63832Y33264D01*
Y30598D01*
X62499Y29265D01*
X58500D01*
X61166D02*
X63832Y26599D01*
X66497Y34597D02*
Y26599D01*
X70496D01*
X71829Y27932D01*
Y33264D01*
X70496Y34597D01*
X66497D01*
X74495Y26599D02*
Y31931D01*
X77161Y34597D01*
X79826Y31931D01*
Y26599D01*
Y30598D01*
X74495D01*
X82492Y25266D02*
X87824D01*
X91823Y26599D02*
X94488D01*
X95821Y27932D01*
Y30598D01*
X94488Y31931D01*
X91823D01*
X90490Y30598D01*
Y27932D01*
X91823Y26599D01*
X98487Y31931D02*
Y26599D01*
Y29265D01*
X99820Y30598D01*
X101153Y31931D01*
X102486D01*
X106484D02*
X111816D01*
X106484Y26599D01*
X111816D01*
X58500Y12069D02*
Y17401D01*
X61166Y20067D01*
X63832Y17401D01*
Y12069D01*
Y16068D01*
X58500D01*
X71829Y20067D02*
Y12069D01*
X67830D01*
X66497Y13402D01*
Y16068D01*
X67830Y17401D01*
X71829D01*
X75828D02*
X78493D01*
X79826Y16068D01*
Y12069D01*
X75828D01*
X74495Y13402D01*
X75828Y14735D01*
X79826D01*
X82492Y9403D02*
Y17401D01*
X86491D01*
X87824Y16068D01*
Y13402D01*
X86491Y12069D01*
X82492D01*
X91823Y18734D02*
Y17401D01*
X90490D01*
X93155D01*
X91823D01*
Y13402D01*
X93155Y12069D01*
X101153D02*
X98487D01*
X97154Y13402D01*
Y16068D01*
X98487Y17401D01*
X101153D01*
X102486Y16068D01*
Y14735D01*
X97154D01*
X105152Y17401D02*
Y12069D01*
Y14735D01*
X106484Y16068D01*
X107817Y17401D01*
X109150D01*
X59000Y45332D02*
X61666Y40000D01*
X64332Y45332D01*
X66997Y40000D02*
X69663D01*
X68330D01*
Y47997D01*
X66997Y46665D01*
X73662Y40000D02*
Y41333D01*
X74995D01*
Y40000D01*
X73662D01*
X80326Y46665D02*
X81659Y47997D01*
X84325D01*
X85658Y46665D01*
Y41333D01*
X84325Y40000D01*
X81659D01*
X80326Y41333D01*
Y46665D01*
X88324Y45332D02*
Y40000D01*
Y42666D01*
X89657Y43999D01*
X90990Y45332D01*
X92323D01*
X96321Y40000D02*
X98987D01*
X97654D01*
Y47997D01*
X96321Y46665D01*
X2335Y440998D02*
X9000Y431002D01*
Y440998D02*
X2335Y431002D01*
X12332D02*
X15664D01*
X13998D01*
Y440998D01*
X12332Y439332D01*
D11*
X39000Y504000D02*
G03*
X39000Y504000I-14000J0D01*
G01*
Y24000D02*
G03*
X39000Y24000I-14000J0D01*
G01*
X31350Y428100D02*
X44050D01*
X31350Y402700D02*
X44050D01*
X31350Y377300D02*
X44050D01*
X31350D02*
X44050D01*
X31350D02*
X44050D01*
X31350Y351900D02*
X44050D01*
X31350D02*
X44050D01*
X31350D02*
X44050D01*
X31350Y326500D02*
X44050D01*
X31350D02*
X44050D01*
X31350D02*
X44050D01*
X31350Y301100D02*
X44050D01*
X31350D02*
X44050D01*
X31350Y275700D02*
X44050D01*
X31350Y250300D02*
X44050D01*
X31350Y224900D02*
X44050D01*
X31350Y199500D02*
X44050D01*
X31350Y174100D02*
X44050D01*
X31350Y148700D02*
X44050D01*
X25000Y409050D02*
Y421750D01*
X18650Y402700D02*
X25000Y396350D01*
X18650Y377300D02*
X25000Y370950D01*
X18650Y377300D02*
X25000Y383650D01*
X18650Y351900D02*
X25000Y358250D01*
X18650Y326500D02*
X25000Y332850D01*
Y307450D02*
Y320150D01*
X18650Y301100D02*
X25000Y294750D01*
X18650Y275700D02*
X25000Y282050D01*
X18650Y275700D02*
X25000Y269350D01*
X18650Y250300D02*
X25000Y256650D01*
X18650Y224900D02*
X25000Y231250D01*
Y205850D02*
Y218550D01*
X18650Y199500D02*
X25000Y193150D01*
X18650Y174100D02*
X25000Y180450D01*
X18650Y174100D02*
X25000Y167750D01*
X18650Y148700D02*
X25000Y155050D01*
X18650Y123300D02*
X25000Y129650D01*
X-400Y409050D02*
Y421750D01*
Y409050D02*
Y421750D01*
Y396350D02*
X5950Y402700D01*
X-400Y370950D02*
X5950Y377300D01*
X-400Y383650D02*
X5950Y377300D01*
X-400Y358250D02*
X5950Y351900D01*
X-400Y332850D02*
X5950Y326500D01*
X-400Y307450D02*
Y320150D01*
Y307450D02*
Y320150D01*
Y294750D02*
X5950Y301100D01*
X-400Y282050D02*
X5950Y275700D01*
X-400Y269350D02*
X5950Y275700D01*
X-400Y256650D02*
X5950Y250300D01*
X-400Y231250D02*
X5950Y224900D01*
X-400Y205850D02*
Y218550D01*
Y205850D02*
Y218550D01*
Y193150D02*
X5950Y199500D01*
X-400Y180450D02*
X5950Y174100D01*
X-400Y167750D02*
X5950Y174100D01*
X-400Y155050D02*
X5950Y148700D01*
X-400Y129650D02*
X5950Y123300D01*
X-400Y104250D02*
Y116950D01*
Y104250D02*
Y116950D01*
X18650Y402700D02*
X25000Y409050D01*
X18650Y428100D02*
X25000Y421750D01*
Y383650D02*
Y396350D01*
X18650Y351900D02*
X25000Y345550D01*
Y332850D02*
Y345550D01*
X18650Y326500D02*
X25000Y320150D01*
X18650Y301100D02*
X25000Y307450D01*
Y358250D02*
Y370950D01*
X18650Y250300D02*
X25000Y243950D01*
X18650Y224900D02*
X25000Y218550D01*
Y231250D02*
Y243950D01*
Y256650D02*
Y269350D01*
X18650Y199500D02*
X25000Y205850D01*
X18650Y148700D02*
X25000Y142350D01*
Y155050D02*
Y167750D01*
Y180450D02*
Y193150D01*
X18650Y97900D02*
X25000Y104250D01*
X18650Y123300D02*
X25000Y116950D01*
Y97900D02*
Y116950D01*
X-400Y421750D02*
X5950Y428100D01*
X-400Y409050D02*
X5950Y402700D01*
X-400Y383650D02*
Y396350D01*
Y383650D02*
Y396350D01*
Y345550D02*
X5950Y351900D01*
X-400Y332850D02*
Y345550D01*
Y332850D02*
Y345550D01*
Y307450D02*
X5950Y301100D01*
X-400Y320150D02*
X5950Y326500D01*
X-400Y358250D02*
Y370950D01*
Y358250D02*
Y370950D01*
Y256650D02*
Y269350D01*
Y243950D02*
X5950Y250300D01*
X-400Y231250D02*
Y243950D01*
Y218550D02*
X5950Y224900D01*
X-400Y231250D02*
Y243950D01*
Y256650D02*
Y269350D01*
Y205850D02*
X5950Y199500D01*
X-400Y180450D02*
Y193150D01*
Y155050D02*
Y167750D01*
Y142350D02*
X5950Y148700D01*
X-400Y155050D02*
Y167750D01*
Y180450D02*
Y193150D01*
Y104250D02*
X5950Y97900D01*
X-400Y116950D02*
X5950Y123300D01*
X25000Y282050D02*
Y294750D01*
Y129650D02*
Y142350D01*
X-400Y282050D02*
Y294750D01*
Y282050D02*
Y294750D01*
Y129650D02*
Y142350D01*
Y129650D02*
Y142350D01*
X5950Y428100D02*
X18650D01*
X50400Y409050D02*
Y421750D01*
X44050Y402700D02*
X50400Y396350D01*
X25000D02*
X31350Y402700D01*
X5950D02*
X18650D01*
X5950Y377300D02*
X18650D01*
X25000Y370950D02*
X31350Y377300D01*
X44050D02*
X50400Y370950D01*
X44050Y377300D02*
X50400Y383650D01*
X25000D02*
X31350Y377300D01*
X5950D02*
X18650D01*
X5950D02*
X18650D01*
X5950Y351900D02*
X18650D01*
X5950D02*
X18650D01*
X5950D02*
X18650D01*
X25000Y358250D02*
X31350Y351900D01*
X44050D02*
X50400Y358250D01*
X5950Y326500D02*
X18650D01*
X5950D02*
X18650D01*
X25000Y332850D02*
X31350Y326500D01*
X44050D02*
X50400Y332850D01*
X5950Y326500D02*
X18650D01*
X50400Y307450D02*
Y320150D01*
X5950Y301100D02*
X18650D01*
X5950D02*
X18650D01*
X25000Y294750D02*
X31350Y301100D01*
X44050D02*
X50400Y294750D01*
X5950Y275700D02*
X18650D01*
X44050D02*
X50400Y269350D01*
X25000D02*
X31350Y275700D01*
X25000Y282050D02*
X31350Y275700D01*
X44050D02*
X50400Y282050D01*
X5950Y250300D02*
X18650D01*
X44050D02*
X50400Y256650D01*
X25000D02*
X31350Y250300D01*
X5950Y224900D02*
X18650D01*
X25000Y231250D02*
X31350Y224900D01*
X44050D02*
X50400Y231250D01*
Y205850D02*
Y218550D01*
X5950Y199500D02*
X18650D01*
X25000Y193150D02*
X31350Y199500D01*
X44050D02*
X50400Y193150D01*
X5950Y174100D02*
X18650D01*
X44050D02*
X50400Y167750D01*
X25000D02*
X31350Y174100D01*
X25000Y180450D02*
X31350Y174100D01*
X44050D02*
X50400Y180450D01*
X5950Y148700D02*
X18650D01*
X44050D02*
X50400Y155050D01*
X25000D02*
X31350Y148700D01*
Y123300D02*
X50400D01*
X25000Y129650D02*
X31350Y123300D01*
X44050D02*
X50400Y129650D01*
X5950Y123300D02*
X18650D01*
X25000Y97900D02*
X50400D01*
X5950D02*
X18650D01*
X25000Y409050D02*
X31350Y402700D01*
X25000Y421750D02*
X31350Y428100D01*
X44050D02*
X50400Y421750D01*
X44050Y402700D02*
X50400Y409050D01*
Y383650D02*
Y396350D01*
Y332850D02*
Y345550D01*
X25000D02*
X31350Y351900D01*
X44050D02*
X50400Y345550D01*
X44050Y301100D02*
X50400Y307450D01*
X44050Y326500D02*
X50400Y320150D01*
X25000D02*
X31350Y326500D01*
X25000Y307450D02*
X31350Y301100D01*
X50400Y358250D02*
Y370950D01*
Y256650D02*
Y269350D01*
Y231250D02*
Y243950D01*
X44050Y224900D02*
X50400Y218550D01*
X25000D02*
X31350Y224900D01*
X25000Y243950D02*
X31350Y250300D01*
X44050D02*
X50400Y243950D01*
Y180450D02*
Y193150D01*
Y155050D02*
Y167750D01*
X25000Y142350D02*
X31350Y148700D01*
X44050D02*
X50400Y142350D01*
X44050Y199500D02*
X50400Y205850D01*
X25000D02*
X31350Y199500D01*
X50400Y97900D02*
Y123300D01*
Y282050D02*
Y294750D01*
Y129650D02*
Y142350D01*
D12*
X13291Y85500D02*
G03*
X13291Y85500I-791J0D01*
G01*
D13*
X31350Y428100D02*
X44050D01*
X31350Y402700D02*
X44050D01*
X31350Y377300D02*
X44050D01*
X31350Y351900D02*
X44050D01*
X31350Y326500D02*
X44050D01*
X31350Y301100D02*
X44050D01*
X31350Y275700D02*
X44050D01*
X31350Y250300D02*
X44050D01*
X31350Y224900D02*
X44050D01*
X31350Y199500D02*
X44050D01*
X31350Y174100D02*
X44050D01*
X31350Y148700D02*
X44050D01*
X25000Y409050D02*
Y421750D01*
X18650Y402700D02*
X25000Y396350D01*
X18650Y377300D02*
X25000Y383650D01*
X18650Y377300D02*
X25000Y370950D01*
X18650Y351900D02*
X25000Y358250D01*
X18650Y326500D02*
X25000Y332850D01*
Y307450D02*
Y320150D01*
X18650Y301100D02*
X25000Y294750D01*
X18650Y275700D02*
X25000Y282050D01*
X18650Y275700D02*
X25000Y269350D01*
X18650Y250300D02*
X25000Y256650D01*
X18650Y224900D02*
X25000Y231250D01*
Y205850D02*
Y218550D01*
X18650Y199500D02*
X25000Y193150D01*
X18650Y174100D02*
X25000Y180450D01*
X18650Y174100D02*
X25000Y167750D01*
X18650Y148700D02*
X25000Y155050D01*
X18650Y123300D02*
X25000Y129650D01*
X-400Y409050D02*
Y421750D01*
Y396350D02*
X5950Y402700D01*
X-400Y383650D02*
X5950Y377300D01*
X-400Y370950D02*
X5950Y377300D01*
X-400Y358250D02*
X5950Y351900D01*
X-400Y332850D02*
X5950Y326500D01*
X-400Y307450D02*
Y320150D01*
Y294750D02*
X5950Y301100D01*
X-400Y282050D02*
X5950Y275700D01*
X-400Y269350D02*
X5950Y275700D01*
X-400Y256650D02*
X5950Y250300D01*
X-400Y231250D02*
X5950Y224900D01*
X-400Y205850D02*
Y218550D01*
Y193150D02*
X5950Y199500D01*
X-400Y180450D02*
X5950Y174100D01*
X-400Y167750D02*
X5950Y174100D01*
X-400Y155050D02*
X5950Y148700D01*
X-400Y129650D02*
X5950Y123300D01*
X-400Y104250D02*
Y116950D01*
X18650Y428100D02*
X25000Y421750D01*
X18650Y402700D02*
X25000Y409050D01*
Y383650D02*
Y396350D01*
Y332850D02*
Y345550D01*
Y358250D02*
Y370950D01*
X18650Y301100D02*
X25000Y307450D01*
X18650Y326500D02*
X25000Y320150D01*
X18650Y351900D02*
X25000Y345550D01*
Y256650D02*
Y269350D01*
Y231250D02*
Y243950D01*
X18650Y224900D02*
X25000Y218550D01*
X18650Y250300D02*
X25000Y243950D01*
X18650Y199500D02*
X25000Y205850D01*
Y180450D02*
Y193150D01*
Y155050D02*
Y167750D01*
X18650Y148700D02*
X25000Y142350D01*
X18650Y97900D02*
X25000Y104250D01*
X18650Y123300D02*
X25000Y116950D01*
Y97900D02*
Y116950D01*
X-400Y421750D02*
X5950Y428100D01*
X-400Y409050D02*
X5950Y402700D01*
X-400Y383650D02*
Y396350D01*
Y332850D02*
Y345550D01*
Y320150D02*
X5950Y326500D01*
X-400Y307450D02*
X5950Y301100D01*
X-400Y358250D02*
Y370950D01*
Y345550D02*
X5950Y351900D01*
X-400Y218550D02*
X5950Y224900D01*
X-400Y256650D02*
Y269350D01*
Y231250D02*
Y243950D01*
X5950Y250300D01*
X-400Y205850D02*
X5950Y199500D01*
X-400Y180450D02*
Y193150D01*
Y155050D02*
Y167750D01*
Y142350D02*
X5950Y148700D01*
X-400Y104250D02*
X5950Y97900D01*
X-400Y116950D02*
X5950Y123300D01*
X25000Y282050D02*
Y294750D01*
Y129650D02*
Y142350D01*
X-400Y282050D02*
Y294750D01*
Y129650D02*
Y142350D01*
X5950Y428100D02*
X18650D01*
X50400Y409050D02*
Y421750D01*
X25000Y396350D02*
X31350Y402700D01*
X44050D02*
X50400Y396350D01*
X5950Y402700D02*
X18650D01*
X25000Y383650D02*
X31350Y377300D01*
X25000Y370950D02*
X31350Y377300D01*
X44050D02*
X50400Y383650D01*
X44050Y377300D02*
X50400Y370950D01*
X5950Y377300D02*
X18650D01*
X25000Y358250D02*
X31350Y351900D01*
X44050D02*
X50400Y358250D01*
X5950Y351900D02*
X18650D01*
X25000Y332850D02*
X31350Y326500D01*
X44050D02*
X50400Y332850D01*
X5950Y326500D02*
X18650D01*
X50400Y307450D02*
Y320150D01*
X25000Y294750D02*
X31350Y301100D01*
X44050D02*
X50400Y294750D01*
X5950Y301100D02*
X18650D01*
X25000Y282050D02*
X31350Y275700D01*
X25000Y269350D02*
X31350Y275700D01*
X44050D02*
X50400Y282050D01*
X44050Y275700D02*
X50400Y269350D01*
X5950Y275700D02*
X18650D01*
X25000Y256650D02*
X31350Y250300D01*
X44050D02*
X50400Y256650D01*
X5950Y250300D02*
X18650D01*
X25000Y231250D02*
X31350Y224900D01*
X44050D02*
X50400Y231250D01*
X5950Y224900D02*
X18650D01*
X50400Y205850D02*
Y218550D01*
X25000Y193150D02*
X31350Y199500D01*
X44050D02*
X50400Y193150D01*
X5950Y199500D02*
X18650D01*
X25000Y180450D02*
X31350Y174100D01*
X25000Y167750D02*
X31350Y174100D01*
X44050D02*
X50400Y180450D01*
X44050Y174100D02*
X50400Y167750D01*
X5950Y174100D02*
X18650D01*
X25000Y155050D02*
X31350Y148700D01*
X44050D02*
X50400Y155050D01*
X5950Y148700D02*
X18650D01*
X31350Y123300D02*
X50400D01*
X25000Y129650D02*
X31350Y123300D01*
X44050D02*
X50400Y129650D01*
X25000Y97900D02*
X50400D01*
X5950D02*
X18650D01*
X25000Y421750D02*
X31350Y428100D01*
X44050D02*
X50400Y421750D01*
X25000Y409050D02*
X31350Y402700D01*
X44050D02*
X50400Y409050D01*
Y383650D02*
Y396350D01*
Y332850D02*
Y345550D01*
X25000Y307450D02*
X31350Y301100D01*
X25000Y320150D02*
X31350Y326500D01*
X44050D02*
X50400Y320150D01*
X44050Y301100D02*
X50400Y307450D01*
Y358250D02*
Y370950D01*
X25000Y345550D02*
X31350Y351900D01*
X44050D02*
X50400Y345550D01*
X25000Y218550D02*
X31350Y224900D01*
X44050D02*
X50400Y218550D01*
Y256650D02*
Y269350D01*
Y231250D02*
Y243950D01*
X25000D02*
X31350Y250300D01*
X44050D02*
X50400Y243950D01*
X25000Y205850D02*
X31350Y199500D01*
X44050D02*
X50400Y205850D01*
Y180450D02*
Y193150D01*
Y155050D02*
Y167750D01*
X25000Y142350D02*
X31350Y148700D01*
X44050D02*
X50400Y142350D01*
Y97900D02*
Y123300D01*
Y282050D02*
Y294750D01*
Y129650D02*
Y142350D01*
X25000Y258000D02*
Y268000D01*
X20000Y263000D02*
X30000D01*
D14*
X50400Y97900D02*
Y428100D01*
X-400Y97900D02*
Y428100D01*
X50400D01*
X-400Y97900D02*
X50400D01*
M02*
