M48
;Layer_Color=9474304
;FILE_FORMAT=4:4
METRIC,LZ
;TYPE=PLATED
T1F00S00C0.3000
T2F00S00C1.0000
T3F00S00C2.8000
%
T01
X00051Y00077
X00045Y00084
X00051Y00091
X00095
Y00101
X00095102Y00110977
X0008Y00159
T02
X000123Y001106
Y00136
Y001614
Y001868
X000377
Y001614
Y00136
Y001106
Y002122
X000123
Y002376
X000377
Y00263
X000123
Y002884
X000377
Y003138
X000123
Y003392
Y003646
Y0039
X000377
Y003646
Y003392
Y004154
X000123
T03
X00025Y00024
Y00504
M30
